<mxfile host="app.diagrams.net" modified="2020-11-27T01:20:32.768Z" agent="5.0 (Windows NT 10.0; Win64; x64) AppleWebKit/537.36 (KHTML, like Gecko) Chrome/86.0.4240.198 Safari/537.36" etag="R0IRFDpO9pSEuCfKIysw" version="13.10.4" type="github">
  <diagram id="DjKemZNEhdNtvcjpsIJ8" name="Page-1">
    <mxGraphModel dx="2747" dy="1706" grid="1" gridSize="10" guides="1" tooltips="1" connect="1" arrows="1" fold="1" page="1" pageScale="1" pageWidth="850" pageHeight="1100" math="0" shadow="0">
      <root>
        <mxCell id="0" />
        <mxCell id="1" parent="0" />
        <mxCell id="hBja6GVPb4lpta9B1QEM-69" style="edgeStyle=orthogonalEdgeStyle;rounded=0;orthogonalLoop=1;jettySize=auto;html=1;exitX=0.5;exitY=1;exitDx=0;exitDy=0;entryX=0.5;entryY=0;entryDx=0;entryDy=0;" parent="1" source="hBja6GVPb4lpta9B1QEM-70" target="hBja6GVPb4lpta9B1QEM-74" edge="1">
          <mxGeometry relative="1" as="geometry" />
        </mxCell>
        <mxCell id="hBja6GVPb4lpta9B1QEM-70" value="Mulai" style="ellipse;whiteSpace=wrap;html=1;" parent="1" vertex="1">
          <mxGeometry x="1268" y="30" width="95" height="60" as="geometry" />
        </mxCell>
        <mxCell id="hBja6GVPb4lpta9B1QEM-71" style="edgeStyle=orthogonalEdgeStyle;rounded=0;orthogonalLoop=1;jettySize=auto;html=1;exitX=0.5;exitY=1;exitDx=0;exitDy=0;entryX=0.58;entryY=0;entryDx=0;entryDy=0;entryPerimeter=0;" parent="1" source="hBja6GVPb4lpta9B1QEM-74" target="hBja6GVPb4lpta9B1QEM-78" edge="1">
          <mxGeometry relative="1" as="geometry" />
        </mxCell>
        <mxCell id="hBja6GVPb4lpta9B1QEM-72" style="edgeStyle=orthogonalEdgeStyle;rounded=0;orthogonalLoop=1;jettySize=auto;html=1;exitX=1;exitY=0.5;exitDx=0;exitDy=0;entryX=0.5;entryY=0;entryDx=0;entryDy=0;" parent="1" source="hBja6GVPb4lpta9B1QEM-74" target="hBja6GVPb4lpta9B1QEM-80" edge="1">
          <mxGeometry relative="1" as="geometry" />
        </mxCell>
        <mxCell id="hBja6GVPb4lpta9B1QEM-73" style="edgeStyle=orthogonalEdgeStyle;rounded=0;orthogonalLoop=1;jettySize=auto;html=1;exitX=0;exitY=0.5;exitDx=0;exitDy=0;entryX=0.5;entryY=0;entryDx=0;entryDy=0;" parent="1" source="hBja6GVPb4lpta9B1QEM-74" target="hBja6GVPb4lpta9B1QEM-76" edge="1">
          <mxGeometry relative="1" as="geometry" />
        </mxCell>
        <mxCell id="hBja6GVPb4lpta9B1QEM-74" value="Sleman Dataset" style="shape=parallelogram;perimeter=parallelogramPerimeter;whiteSpace=wrap;html=1;fixedSize=1;" parent="1" vertex="1">
          <mxGeometry x="1255" y="120" width="120" height="60" as="geometry" />
        </mxCell>
        <mxCell id="hBja6GVPb4lpta9B1QEM-75" style="edgeStyle=orthogonalEdgeStyle;rounded=0;orthogonalLoop=1;jettySize=auto;html=1;exitX=0.5;exitY=1;exitDx=0;exitDy=0;entryX=0.5;entryY=0;entryDx=0;entryDy=0;" parent="1" source="hBja6GVPb4lpta9B1QEM-76" target="hBja6GVPb4lpta9B1QEM-85" edge="1">
          <mxGeometry relative="1" as="geometry">
            <Array as="points">
              <mxPoint x="1170" y="270" />
              <mxPoint x="1303" y="270" />
            </Array>
          </mxGeometry>
        </mxCell>
        <mxCell id="hBja6GVPb4lpta9B1QEM-76" value="Fasilitas Umum" style="shape=parallelogram;perimeter=parallelogramPerimeter;whiteSpace=wrap;html=1;fixedSize=1;" parent="1" vertex="1">
          <mxGeometry x="1110" y="200" width="120" height="60" as="geometry" />
        </mxCell>
        <mxCell id="hBja6GVPb4lpta9B1QEM-77" style="edgeStyle=orthogonalEdgeStyle;rounded=0;orthogonalLoop=1;jettySize=auto;html=1;exitX=0.5;exitY=1;exitDx=0;exitDy=0;entryX=0.5;entryY=0;entryDx=0;entryDy=0;" parent="1" source="hBja6GVPb4lpta9B1QEM-78" target="hBja6GVPb4lpta9B1QEM-85" edge="1">
          <mxGeometry relative="1" as="geometry" />
        </mxCell>
        <mxCell id="hBja6GVPb4lpta9B1QEM-78" value="Jaringan Jalan" style="shape=parallelogram;perimeter=parallelogramPerimeter;whiteSpace=wrap;html=1;fixedSize=1;" parent="1" vertex="1">
          <mxGeometry x="1243" y="200" width="120" height="60" as="geometry" />
        </mxCell>
        <mxCell id="hBja6GVPb4lpta9B1QEM-79" style="edgeStyle=orthogonalEdgeStyle;rounded=0;orthogonalLoop=1;jettySize=auto;html=1;exitX=0.5;exitY=1;exitDx=0;exitDy=0;entryX=0.5;entryY=0;entryDx=0;entryDy=0;" parent="1" source="hBja6GVPb4lpta9B1QEM-80" target="hBja6GVPb4lpta9B1QEM-85" edge="1">
          <mxGeometry relative="1" as="geometry">
            <Array as="points">
              <mxPoint x="1440" y="270" />
              <mxPoint x="1303" y="270" />
            </Array>
          </mxGeometry>
        </mxCell>
        <mxCell id="hBja6GVPb4lpta9B1QEM-80" value="KRB Merapi" style="shape=parallelogram;perimeter=parallelogramPerimeter;whiteSpace=wrap;html=1;fixedSize=1;" parent="1" vertex="1">
          <mxGeometry x="1380" y="200" width="120" height="60" as="geometry" />
        </mxCell>
        <mxCell id="hBja6GVPb4lpta9B1QEM-81" style="edgeStyle=orthogonalEdgeStyle;rounded=0;orthogonalLoop=1;jettySize=auto;html=1;exitX=0.5;exitY=1;exitDx=0;exitDy=0;entryX=0.5;entryY=0;entryDx=0;entryDy=0;" parent="1" source="hBja6GVPb4lpta9B1QEM-85" target="hBja6GVPb4lpta9B1QEM-86" edge="1">
          <mxGeometry relative="1" as="geometry">
            <Array as="points">
              <mxPoint x="1303" y="350" />
              <mxPoint x="1060" y="350" />
            </Array>
          </mxGeometry>
        </mxCell>
        <mxCell id="hBja6GVPb4lpta9B1QEM-82" style="edgeStyle=orthogonalEdgeStyle;rounded=0;orthogonalLoop=1;jettySize=auto;html=1;exitX=0.5;exitY=1;exitDx=0;exitDy=0;entryX=0.5;entryY=0;entryDx=0;entryDy=0;" parent="1" source="hBja6GVPb4lpta9B1QEM-85" target="hBja6GVPb4lpta9B1QEM-87" edge="1">
          <mxGeometry relative="1" as="geometry">
            <Array as="points">
              <mxPoint x="1303" y="350" />
              <mxPoint x="1241" y="350" />
            </Array>
          </mxGeometry>
        </mxCell>
        <mxCell id="hBja6GVPb4lpta9B1QEM-83" style="edgeStyle=orthogonalEdgeStyle;rounded=0;orthogonalLoop=1;jettySize=auto;html=1;exitX=0.5;exitY=1;exitDx=0;exitDy=0;entryX=0.5;entryY=0;entryDx=0;entryDy=0;" parent="1" source="hBja6GVPb4lpta9B1QEM-85" target="hBja6GVPb4lpta9B1QEM-89" edge="1">
          <mxGeometry relative="1" as="geometry">
            <Array as="points">
              <mxPoint x="1303" y="350" />
              <mxPoint x="1570" y="350" />
            </Array>
          </mxGeometry>
        </mxCell>
        <mxCell id="hBja6GVPb4lpta9B1QEM-84" style="edgeStyle=orthogonalEdgeStyle;rounded=0;orthogonalLoop=1;jettySize=auto;html=1;exitX=0.5;exitY=1;exitDx=0;exitDy=0;entryX=0.5;entryY=0;entryDx=0;entryDy=0;" parent="1" source="hBja6GVPb4lpta9B1QEM-85" target="hBja6GVPb4lpta9B1QEM-88" edge="1">
          <mxGeometry relative="1" as="geometry">
            <Array as="points">
              <mxPoint x="1303" y="350" />
              <mxPoint x="1410" y="350" />
            </Array>
          </mxGeometry>
        </mxCell>
        <mxCell id="hBja6GVPb4lpta9B1QEM-85" value="Analisa Jaringan" style="rounded=0;whiteSpace=wrap;html=1;" parent="1" vertex="1">
          <mxGeometry x="1243" y="280" width="120" height="60" as="geometry" />
        </mxCell>
        <mxCell id="hBja6GVPb4lpta9B1QEM-93" style="edgeStyle=orthogonalEdgeStyle;rounded=0;orthogonalLoop=1;jettySize=auto;html=1;exitX=0.5;exitY=1;exitDx=0;exitDy=0;" parent="1" source="hBja6GVPb4lpta9B1QEM-86" target="hBja6GVPb4lpta9B1QEM-90" edge="1">
          <mxGeometry relative="1" as="geometry">
            <Array as="points">
              <mxPoint x="1060" y="450" />
              <mxPoint x="1326" y="450" />
            </Array>
          </mxGeometry>
        </mxCell>
        <mxCell id="hBja6GVPb4lpta9B1QEM-86" value="Fasilitas Pendidikan terdekat ke Terminal (Maks 5km)" style="rounded=0;whiteSpace=wrap;html=1;" parent="1" vertex="1">
          <mxGeometry x="1000" y="370" width="120" height="60" as="geometry" />
        </mxCell>
        <mxCell id="hBja6GVPb4lpta9B1QEM-92" style="edgeStyle=orthogonalEdgeStyle;rounded=0;orthogonalLoop=1;jettySize=auto;html=1;exitX=0.5;exitY=1;exitDx=0;exitDy=0;entryX=0.5;entryY=0;entryDx=0;entryDy=0;" parent="1" source="hBja6GVPb4lpta9B1QEM-87" target="hBja6GVPb4lpta9B1QEM-90" edge="1">
          <mxGeometry relative="1" as="geometry">
            <Array as="points">
              <mxPoint x="1241" y="450" />
              <mxPoint x="1326" y="450" />
            </Array>
          </mxGeometry>
        </mxCell>
        <mxCell id="hBja6GVPb4lpta9B1QEM-87" value="Toko Fotokopi Terdekat tiap fasilitas pendidikan" style="rounded=0;whiteSpace=wrap;html=1;" parent="1" vertex="1">
          <mxGeometry x="1180.5" y="370" width="120" height="60" as="geometry" />
        </mxCell>
        <mxCell id="hBja6GVPb4lpta9B1QEM-91" style="edgeStyle=orthogonalEdgeStyle;rounded=0;orthogonalLoop=1;jettySize=auto;html=1;exitX=0.5;exitY=1;exitDx=0;exitDy=0;entryX=0.5;entryY=0;entryDx=0;entryDy=0;" parent="1" source="hBja6GVPb4lpta9B1QEM-88" target="hBja6GVPb4lpta9B1QEM-90" edge="1">
          <mxGeometry relative="1" as="geometry">
            <Array as="points">
              <mxPoint x="1410" y="450" />
              <mxPoint x="1326" y="450" />
            </Array>
          </mxGeometry>
        </mxCell>
        <mxCell id="hBja6GVPb4lpta9B1QEM-88" value="Fasilitas Kesehatan Rujukan Terdekat dari KRB" style="rounded=0;whiteSpace=wrap;html=1;" parent="1" vertex="1">
          <mxGeometry x="1350" y="370" width="120" height="60" as="geometry" />
        </mxCell>
        <mxCell id="hBja6GVPb4lpta9B1QEM-94" style="edgeStyle=orthogonalEdgeStyle;rounded=0;orthogonalLoop=1;jettySize=auto;html=1;exitX=0.5;exitY=1;exitDx=0;exitDy=0;entryX=0.5;entryY=0;entryDx=0;entryDy=0;" parent="1" source="hBja6GVPb4lpta9B1QEM-89" target="hBja6GVPb4lpta9B1QEM-90" edge="1">
          <mxGeometry relative="1" as="geometry">
            <Array as="points">
              <mxPoint x="1570" y="450" />
              <mxPoint x="1326" y="450" />
            </Array>
          </mxGeometry>
        </mxCell>
        <mxCell id="hBja6GVPb4lpta9B1QEM-89" value="Rute Evakuasi KRB ke Fasilitas Kesehatan Rujukan" style="rounded=0;whiteSpace=wrap;html=1;" parent="1" vertex="1">
          <mxGeometry x="1510" y="370" width="120" height="60" as="geometry" />
        </mxCell>
        <mxCell id="hBja6GVPb4lpta9B1QEM-90" value="" style="ellipse;whiteSpace=wrap;html=1;aspect=fixed;" parent="1" vertex="1">
          <mxGeometry x="1300.5" y="460" width="50" height="50" as="geometry" />
        </mxCell>
      </root>
    </mxGraphModel>
  </diagram>
</mxfile>
